<svg width="21" height="20" viewBox="0 0 21 20" fill="none" xmlns="http://www.w3.org/2000/svg">
<path d="M11.5709 17.988L10.9009 18.598L9.45088 17.278C4.30088 12.608 0.900879 9.51805 0.900879 5.74805C0.900879 2.65805 3.32088 0.248047 6.40088 0.248047C8.14088 0.248047 9.81088 1.05805 10.9009 2.32805C11.9909 1.05805 13.6609 0.248047 15.4009 0.248047C18.4809 0.248047 20.9009 2.65805 20.9009 5.74805C20.9009 7.17805 20.4009 8.50805 19.5209 9.85805C18.9009 9.55805 18.2109 9.35805 17.4909 9.28805C18.4009 8.04805 18.9009 6.89805 18.9009 5.74805C18.9009 3.74805 17.4009 2.24805 15.4009 2.24805C13.8609 2.24805 12.3609 3.24805 11.8309 4.60805H9.97088C9.44088 3.24805 7.94088 2.24805 6.40088 2.24805C4.40088 2.24805 2.90088 3.74805 2.90088 5.74805C2.90088 8.63805 6.04088 11.488 10.7909 15.798L10.9009 15.898L10.9409 15.858C11.0209 16.618 11.2409 17.338 11.5709 17.988ZM15.9009 11.248V14.248H12.9009V16.248H15.9009V19.248H17.9009V16.248H20.9009V14.248H17.9009V11.248H15.9009Z" fill="black"/>
</svg>
