<svg width="30" height="30" viewBox="0 0 30 30" fill="none" xmlns="http://www.w3.org/2000/svg">
<path d="M12 21.4286L19.785 15L12 8.57143V21.4286ZM29.34 4.65C29.535 5.65714 29.67 7.00714 29.76 8.72143C29.865 10.4357 29.91 11.9143 29.91 13.2L30 15C30 19.6929 29.76 23.1429 29.34 25.35C28.965 27.2786 28.095 28.5214 26.745 29.0571C26.04 29.3357 24.75 29.5286 22.77 29.6571C20.82 29.8071 19.035 29.8714 17.385 29.8714L15 30C8.715 30 4.8 29.6571 3.255 29.0571C1.905 28.5214 1.035 27.2786 0.66 25.35C0.465 24.3429 0.33 22.9929 0.24 21.2786C0.135 19.5643 0.0899999 18.0857 0.0899999 16.8L0 15C0 10.3071 0.24 6.85714 0.66 4.65C1.035 2.72143 1.905 1.47857 3.255 0.942857C3.96 0.664286 5.25 0.471428 7.23 0.342857C9.18 0.192857 10.965 0.128571 12.615 0.128571L15 0C21.285 0 25.2 0.342857 26.745 0.942857C28.095 1.47857 28.965 2.72143 29.34 4.65Z" fill="white"/>
</svg>
