<svg width="25" height="24" viewBox="0 0 25 24" fill="none" xmlns="http://www.w3.org/2000/svg">
<path d="M12.9321 19.2875L20.3665 23.9487L18.3936 15.1636L24.9619 9.25272L16.3125 8.47794L12.9321 0.2052L9.55178 8.47794L0.902405 9.25272L7.4586 15.1636L5.49776 23.9487L12.9321 19.2875Z" fill="#F2DF33"/>
<path d="M13.1977 18.8639L12.9321 18.6973L12.6665 18.8639L6.24658 22.8891L7.9466 15.2725L8.01018 14.9877L7.79341 14.7923L2.08811 9.64851L9.59639 8.97594L9.89951 8.94879L10.0146 8.66706L12.9321 1.52706L15.8496 8.66706L15.9648 8.94879L16.2679 8.97594L23.7747 9.64839L18.0592 14.7919L17.8417 14.9877L17.9058 15.2732L19.6158 22.8879L13.1977 18.8639Z" stroke="black" stroke-opacity="0.03"/>
</svg>
