<svg width="30" height="30" viewBox="0 0 30 30" fill="none" xmlns="http://www.w3.org/2000/svg">
<path d="M30 3.52941C28.8958 4.14706 27.7055 4.55294 26.4723 4.74706C27.7342 3.81176 28.7094 2.32941 29.1683 0.547059C27.978 1.42941 26.6587 2.04706 25.2677 2.4C24.1348 0.882353 22.543 0 20.7361 0C17.3662 0 14.6128 3.38824 14.6128 7.57059C14.6128 8.17059 14.6702 8.75294 14.7706 9.3C9.66539 8.98235 5.1195 5.96471 2.09369 1.39412C1.5631 2.50588 1.26195 3.81176 1.26195 5.18824C1.26195 7.81765 2.33748 10.1471 4.00096 11.4706C2.98279 11.4706 2.03633 11.1176 1.20459 10.5882C1.20459 10.5882 1.20459 10.5882 1.20459 10.6412C1.20459 14.3118 3.32696 17.3824 6.13767 18.0706C5.62142 18.2471 5.07648 18.3353 4.51721 18.3353C4.13002 18.3353 3.74283 18.2824 3.36998 18.1941C4.14436 21.1765 6.39579 23.4 9.10612 23.4529C7.01243 25.5 4.35947 26.7 1.46272 26.7C0.975143 26.7 0.487572 26.6647 0 26.5941C2.72467 28.7471 5.96558 30 9.43595 30C20.7361 30 26.9455 18.4588 26.9455 8.45294C26.9455 8.11765 26.9455 7.8 26.9312 7.4647C28.1358 6.40588 29.1683 5.06471 30 3.52941Z" fill="white"/>
</svg>
